<svg xmlns="http://www.w3.org/2000/svg" viewBox="0 0 227.35 113.67"><defs><style>.cls-1{fill:#565555;}.cls-2{fill:#fff;}</style></defs><title>menutriangle</title><g id="Layer_2" data-name="Layer 2"><g id="Layer_1-2" data-name="Layer 1"><polygon class="cls-1" points="227.35 0 0 0 113.67 113.67 227.35 0"/><path class="cls-2" d="M80.68,32.12v2h.06a5.69,5.69,0,0,1,2-1.8,5.24,5.24,0,0,1,2.62-.64,6,6,0,0,1,2.6.55A3.7,3.7,0,0,1,89.7,34.2a6.7,6.7,0,0,1,1.81-1.74,4.87,4.87,0,0,1,2.72-.75,8.13,8.13,0,0,1,2.2.29,4.17,4.17,0,0,1,2.87,2.59,6.81,6.81,0,0,1,.41,2.48v10H95.59v-8.5c0-.5,0-1-.06-1.42A3.15,3.15,0,0,0,95.21,36a1.87,1.87,0,0,0-.77-.78A2.7,2.7,0,0,0,93.06,35a2.64,2.64,0,0,0-1.4.33,2.34,2.34,0,0,0-.84.87,3.38,3.38,0,0,0-.41,1.22,9,9,0,0,0-.1,1.38v8.35H86.19V38.7q0-.68,0-1.32a3.76,3.76,0,0,0-.24-1.2,1.87,1.87,0,0,0-.73-.89A2.77,2.77,0,0,0,83.7,35a2.92,2.92,0,0,0-.77.13,2.47,2.47,0,0,0-.93.49,3,3,0,0,0-.77,1,4.31,4.31,0,0,0-.32,1.79v8.7H76.8v-15Z"/><path class="cls-2" d="M107.36,43.51a3.69,3.69,0,0,0,2.67.9,3.73,3.73,0,0,0,2.15-.62,2.69,2.69,0,0,0,1.1-1.32h3.62a6.84,6.84,0,0,1-2.67,3.85,7.76,7.76,0,0,1-4.35,1.17,8.55,8.55,0,0,1-3.19-.57,6.59,6.59,0,0,1-2.4-1.61,7.16,7.16,0,0,1-1.52-2.49,9.09,9.09,0,0,1-.54-3.19,8.71,8.71,0,0,1,.55-3.14,7.32,7.32,0,0,1,1.57-2.5,7.13,7.13,0,0,1,2.42-1.67,7.64,7.64,0,0,1,3.11-.61,7.18,7.18,0,0,1,3.34.74,6.52,6.52,0,0,1,2.33,2,8.06,8.06,0,0,1,1.32,2.84,10.49,10.49,0,0,1,.29,3.33H106.35A4.11,4.11,0,0,0,107.36,43.51ZM112,35.62a2.92,2.92,0,0,0-2.25-.81,3.47,3.47,0,0,0-1.64.34,3.08,3.08,0,0,0-1,.82,3,3,0,0,0-.55,1.05,4.42,4.42,0,0,0-.19,1h6.7A4.91,4.91,0,0,0,112,35.62Z"/><path class="cls-2" d="M123.51,32.12V34.2h.09a4.74,4.74,0,0,1,2-1.9,5.94,5.94,0,0,1,2.55-.59,7,7,0,0,1,2.72.45,3.93,3.93,0,0,1,1.66,1.25,4.79,4.79,0,0,1,.86,1.94,12.39,12.39,0,0,1,.24,2.54v9.22h-4.11V38.64a5.32,5.32,0,0,0-.58-2.77,2.25,2.25,0,0,0-2.06-.91,2.85,2.85,0,0,0-2.44,1,5.56,5.56,0,0,0-.75,3.29v7.86H119.6v-15Z"/><path class="cls-2" d="M147,47.11V45h-.09a4.66,4.66,0,0,1-2,1.89,6.08,6.08,0,0,1-2.55.58,7.17,7.17,0,0,1-2.71-.44,3.87,3.87,0,0,1-1.67-1.23,4.84,4.84,0,0,1-.86-2,12.29,12.29,0,0,1-.24-2.53V32.12h4.11v8.46a5.32,5.32,0,0,0,.58,2.77,2.26,2.26,0,0,0,2.06.92,2.88,2.88,0,0,0,2.44-1,5.62,5.62,0,0,0,.75-3.3V32.12h4.12v15Z"/></g></g></svg>