<svg xmlns="http://www.w3.org/2000/svg" viewBox="0 0 373.04 373.04"><defs><style>.cls-1{opacity:0.9;}.cls-2{fill:#fcfcfc;}.cls-3,.cls-6{fill:#df5857;}.cls-4{fill:#231f20;}.cls-5,.cls-6{fill-rule:evenodd;}</style></defs><title>Asset 4</title><g id="Layer_2" data-name="Layer 2"><g id="Layer_1-2" data-name="Layer 1"><g class="cls-1"><polygon class="cls-2" points="0 373.04 373.04 0 0 0 0 373.04"/></g><path class="cls-3" d="M155.46,107l-.07-.07h0a13.17,13.17,0,0,0-18.47.21,12.85,12.85,0,0,0-3.59,6.9l-.06-.06a3.81,3.81,0,0,0-4.73.63,3.85,3.85,0,0,0-.06,5.41l3,.23,5.33,5.3L149.34,138l2.34-.17a3.88,3.88,0,0,0,.17-5.3L141,121.62l-.15-.17a7.5,7.5,0,0,1,.15-10.32,7.38,7.38,0,0,1,10.56-.13l12.4,12.39,2.34-.17a3.88,3.88,0,0,0,.17-5.3l-10.7-10.7-.12-.13-.15-.14"/><path class="cls-3" d="M221.88,40.54l-.07-.07h0a13.17,13.17,0,0,0-18.47.21,12.85,12.85,0,0,0-3.59,6.89l-.06-.06a3.81,3.81,0,0,0-4.73.63,3.85,3.85,0,0,0-.06,5.42l3,.23,5.33,5.3,12.56,12.48,2.34-.17a3.88,3.88,0,0,0,.17-5.3L207.38,55.21l-.15-.16a7.5,7.5,0,0,1,.15-10.32,7.39,7.39,0,0,1,10.56-.13L230.33,57l2.34-.17a3.88,3.88,0,0,0,.17-5.3l-10.7-10.7-.12-.13-.15-.14"/><path class="cls-3" d="M108.9,180.49,98.57,190.83c-3.4,3.4-9,4.44-13.59,3.75a15.25,15.25,0,0,1-8.46-4.44,16,16,0,0,1,0-22.61A17.18,17.18,0,0,1,85,162.95a4.67,4.67,0,0,1,7.63-5l.14,3.33,12.41,12.41,3.61.42a4.63,4.63,0,0,1,.14,6.38M92.62,169c-4.57-1-8.57-1.2-12.18,2.4a10.48,10.48,0,0,0,14.74,14.9l7.37-7.37Z"/><path class="cls-3" d="M180,85.23a15.18,15.18,0,0,0-16.34-1.52,4.36,4.36,0,0,0-5.42,1.13l.07,3.36a15.14,15.14,0,0,0,1.39,19.85,15.57,15.57,0,0,0,2.3,1.89,15.23,15.23,0,0,0,10.76,2.44,15,15,0,0,0,4-1.15l.32-.15.68-.34a15.1,15.1,0,0,0,8.15-13.45A15.27,15.27,0,0,0,180,85.23m-16.38,19a9.82,9.82,0,1,1,13.89,0,9.82,9.82,0,0,1-13.89,0"/><path class="cls-3" d="M203.06,62.21a15.18,15.18,0,0,0-16.34-1.52,4.36,4.36,0,0,0-5.42,1.13l.07,3.36A15.14,15.14,0,0,0,182.75,85a15.48,15.48,0,0,0,2.3,1.89A15.07,15.07,0,0,0,189,88.82a15.27,15.27,0,0,0,6.85.55,15,15,0,0,0,4-1.15l.32-.15.68-.34a15.09,15.09,0,0,0,8.15-13.45,15.28,15.28,0,0,0-5.87-12.07m-16.39,19a9.82,9.82,0,1,1,13.89,0,9.82,9.82,0,0,1-13.89,0"/><path class="cls-3" d="M134.72,127.62l0,0h0c-5.19-5-13.08-4.61-18.47.21a13.06,13.06,0,0,0-3.85,10.81,13.17,13.17,0,0,0-10.77,3.81,12.85,12.85,0,0,0-3.59,6.9l-.06-.06a3.81,3.81,0,0,0-4.73.63,3.85,3.85,0,0,0-.06,5.41l3,.23L114,173.3l2.34-.17a3.88,3.88,0,0,0,.17-5.3l-10.89-10.89a7.5,7.5,0,0,1,0-10.49,7.38,7.38,0,0,1,10.56-.13l12.44,12.35,2.34-.17a3.88,3.88,0,0,0,.17-5.3l-3-3-7.89-7.89a7.5,7.5,0,0,1,0-10.49,7.42,7.42,0,0,1,10.41-.17l12.55,12.44,2.34-.17a3.88,3.88,0,0,0,.17-5.3l-11-11Z"/><path class="cls-3" d="M72.1,190.23l0,0h0c-5.19-5-13.08-4.61-18.47.21a13.06,13.06,0,0,0-3.85,10.81A13.17,13.17,0,0,0,39,205a12.85,12.85,0,0,0-3.59,6.9l-.06-.06a3.81,3.81,0,0,0-4.73.63,3.85,3.85,0,0,0-.06,5.41l3,.23L51.4,235.92l2.34-.17a3.88,3.88,0,0,0,.17-5.3L43,219.57a7.5,7.5,0,0,1,0-10.49A7.38,7.38,0,0,1,53.58,209L66,221.3l2.34-.17a3.88,3.88,0,0,0,.17-5.3l-3-3-7.89-7.89a7.5,7.5,0,0,1,0-10.49,7.42,7.42,0,0,1,10.41-.17L80.6,206.72l2.34-.17a3.88,3.88,0,0,0,.17-5.3l-11-11Z"/><path class="cls-4" d="M154.73,107.68l-.07-.07h0a13.17,13.17,0,0,0-18.47.21,12.86,12.86,0,0,0-3.59,6.9l-.06-.06a3.8,3.8,0,0,0-4.73.63,3.85,3.85,0,0,0-.06,5.41l3,.23,5.33,5.3,12.56,12.48,2.34-.17a3.88,3.88,0,0,0,.17-5.3l-10.89-10.89-.15-.17a7.5,7.5,0,0,1,.15-10.32,7.38,7.38,0,0,1,10.56-.13l12.4,12.39,2.34-.17a3.88,3.88,0,0,0,.17-5.3L155,108l-.12-.13-.15-.14"/><path class="cls-4" d="M221.15,41.27l-.07-.07h0a13.17,13.17,0,0,0-18.47.21A12.86,12.86,0,0,0,199,48.3l-.06-.06a3.81,3.81,0,0,0-4.73.63,3.85,3.85,0,0,0-.06,5.41l3,.23,5.33,5.3L215,72.3l2.34-.17a3.88,3.88,0,0,0,.17-5.3L206.65,55.94l-.15-.17a7.49,7.49,0,0,1,.15-10.32,7.38,7.38,0,0,1,10.56-.13l12.4,12.39,2.34-.17a3.88,3.88,0,0,0,.17-5.3l-10.7-10.7-.12-.13-.15-.14"/><path class="cls-4" d="M108.17,181.22,97.84,191.56c-3.4,3.4-9,4.44-13.6,3.75a15.24,15.24,0,0,1-8.46-4.44,16,16,0,0,1,0-22.61,17.18,17.18,0,0,1,8.46-4.58,4.67,4.67,0,0,1,7.63-5L92,162l12.41,12.41,3.61.42a4.63,4.63,0,0,1,.14,6.38M91.89,169.78c-4.57-1-8.57-1.2-12.18,2.4a10.48,10.48,0,0,0,14.74,14.9l7.37-7.37Z"/><path class="cls-4" d="M179.31,86A15.18,15.18,0,0,0,163,84.44a4.36,4.36,0,0,0-5.42,1.13l.07,3.36A15.14,15.14,0,0,0,159,108.78a15.54,15.54,0,0,0,2.3,1.89,15.23,15.23,0,0,0,10.76,2.44,15,15,0,0,0,4-1.15l.32-.15.68-.34A15.1,15.1,0,0,0,185.18,98,15.26,15.26,0,0,0,179.31,86m-16.38,19a9.82,9.82,0,1,1,13.89,0,9.82,9.82,0,0,1-13.89,0"/><path class="cls-4" d="M202.33,62.94A15.13,15.13,0,0,0,190,60a15.25,15.25,0,0,0-4,1.42,4.35,4.35,0,0,0-5.42,1.13l.07,3.36A15.14,15.14,0,0,0,182,85.77a15.48,15.48,0,0,0,2.3,1.89A15.24,15.24,0,0,0,199,88.95l.32-.15.69-.34A15.1,15.1,0,0,0,208.2,75a15.27,15.27,0,0,0-5.87-12.07m-16.38,19a9.82,9.82,0,1,1,13.89,0,9.82,9.82,0,0,1-13.89,0"/><path class="cls-4" d="M134,128.35l0,0h0c-5.19-5-13.08-4.61-18.47.21a13.06,13.06,0,0,0-3.85,10.81,13.17,13.17,0,0,0-10.77,3.81,12.85,12.85,0,0,0-3.59,6.9l-.06-.06a3.81,3.81,0,0,0-4.73.63,3.85,3.85,0,0,0-.06,5.41l3,.23L113.29,174l2.34-.17a3.88,3.88,0,0,0,.17-5.3l-10.89-10.89a7.5,7.5,0,0,1,0-10.49,7.38,7.38,0,0,1,10.56-.13l12.44,12.35,2.34-.17a3.88,3.88,0,0,0,.17-5.3l-3-3-7.89-7.89a7.5,7.5,0,0,1,0-10.49,7.42,7.42,0,0,1,10.41-.17l12.55,12.44,2.34-.17a3.88,3.88,0,0,0,.17-5.3l-11-11Z"/><path class="cls-4" d="M71.37,191l0,0h0c-5.19-5-13.08-4.61-18.47.21A13.06,13.06,0,0,0,49,202a13.17,13.17,0,0,0-10.77,3.81,12.85,12.85,0,0,0-3.59,6.9l-.06-.06a4,4,0,0,0-2.1-.55,3.92,3.92,0,0,0-2.68,6.59l3,.23,17.89,17.78,2.34-.17a3.88,3.88,0,0,0,.17-5.3L42.29,220.3a7.5,7.5,0,0,1,0-10.49,7.38,7.38,0,0,1,10.56-.13L65.29,222l2.34-.17a3.88,3.88,0,0,0,.17-5.3l-3-3-7.89-7.89a7.5,7.5,0,0,1,0-10.49A7.42,7.42,0,0,1,67.32,195l12.55,12.44,2.34-.17a3.88,3.88,0,0,0,.17-5.3l-11-11Z"/><path class="cls-5" d="M204.77,94.35a40.88,40.88,0,0,0-1.1,4.7c2.17-1,10.91-1.95,12.07-.37a1,1,0,0,1-.87,1.08c-3.69-.91-8.81,1-12.1,3,.6,1.91,3.67,4.85,5.08,6.68a1.77,1.77,0,0,1-1.47.9c-3.71-1.72-6-5.86-7.55-9.09a41.37,41.37,0,0,1-3-7.58c-.44-1.43-.82-2.84-.92-3.24A45.81,45.81,0,0,0,191.57,94c2.57,8.35,5.47,16.44,11.22,24.45-1.72,1.7-3.63-.44-4.57-1.68a39.89,39.89,0,0,1-3.66-6,76.93,76.93,0,0,1-5.42-13.39c-2.15,3-3.51,6.09-4.92,8.36-.25.23-.62.18-.93.2,2.18,1.46,4.63,8,4.3,12.61a12.57,12.57,0,0,1-.16,2,2.26,2.26,0,0,1-3.92-.06c.12-5.14-.15-9-3.54-13.2-.72,0-1.41,1.1-1.73,1.58-2.82,4.31-3.74,10.52-3.86,15.07-.06,2.52-.2,4.52,1.41,6.4,2.18-.35,3.91-1.78,6-3.57a78.49,78.49,0,0,1,7.82-6.29,6.84,6.84,0,0,1,2.82-1.33c1.22-.2,3.81-.5,4,1.47s-2.21,6.71-4.19,9.42c-3.6,4.9-8.73,8.8-12.27,5.58-.18-.33.87-2.63,1.77-2.74.49.64.11,1.7.55,2.08a5.07,5.07,0,0,0,2.72-.78,16.61,16.61,0,0,0,5.31-5.26,17.19,17.19,0,0,0,1-1.86,20,20,0,0,0,2-6.18c-4.35,1.7-9.91,9-14.67,11.31-1.44.69-4.31.27-6.06-1.47s-1.68-3.55-1.53-6c.15-1.55.33-3.63.59-5.28.63-3.57,1.64-8.17,3.79-11.58a12.06,12.06,0,0,1,1-1.41c1.94-.69,3.34-1.27,5.59-.9a4.37,4.37,0,0,1,.23-1A42.34,42.34,0,0,1,192.24,88a2.46,2.46,0,0,1,2.36,0c.39-.86,2.06-3.82,2.46-4.41,2.11-3.15,4.82-5,7.37-5.06,1.11,0,2.87.46,3.3,1.66-.09-1-.46-1.82-.66-2.92-.13-.47-.17-.59-.35-1.21-.3.37-.75,1.33-1.15,1.74a2.55,2.55,0,0,1-2.19-.7c1.35-1.24,3.76-5.66,4.11-6.22a54.08,54.08,0,0,1,5.83-8.08c.72-.77,1.65.06,2.2.27.27-.52,2.17-4.34,2.73-5.26,1.25-2.09,4.49-7.57,6.56-9.23.79-.2,2.26.64,3.17.3.35.51.64.35.77.92-3.18,3.65-6,6.37-8.76,10.5a89.21,89.21,0,0,0,3.62,12c.19-.72,3.25-5.37,7-10.42.24-.33.42.2.83.23,1,.08,2.08-.86,3,.82-2.49,2.77-5.29,6.53-7.85,9.62-.46.56-1.56,1.82-1.9,2.28A32.09,32.09,0,0,0,227.44,80c2.16-2.91,6.51-7.71,8.37-10.55a2.44,2.44,0,0,1,2.48-.89,2.27,2.27,0,0,1,1.06.59c.23.27.1.38,0,.55C236,73.52,228.67,81.87,227,84.11c-1.53-1.13-1.76-1-1.42-1.57.13-.19.33-.31.18-.58-.7-1.22-2.12-3.94-2.85-5.27,0,0,.13.33,0,.47-2.43,2.47-5.87,8-8.59,11.74A28.94,28.94,0,0,0,216.87,93c1.3-1.94,5-7.2,5.8-8.44.29-.45,2.49-.75,3.18-.65a1.45,1.45,0,0,1,.84,1,90.85,90.85,0,0,0-10.39,12.5c-1.2-.52-1.14-.42-1.92-.83.22-.36.72-1.11.91-1.41a25.09,25.09,0,0,1-3-3.72c-.68.94-1.45,0-1.91-.41.36-.75.77-1.43.77-1.43s-1.88-4.59-3-8.27C207.46,85.7,204.85,94,204.77,94.35Zm17-19.83A47.88,47.88,0,0,1,218,63a14.21,14.21,0,0,0-1.3,2.36c-.23-.27-.36-.39-.51-.57a40.16,40.16,0,0,0-7.47,8.57,67.46,67.46,0,0,0,4.31,13.26,94.9,94.9,0,0,1,5.71-9.54c.66-.88,1.22-1.91,3-1C220.81,74.93,221.95,74.9,221.73,74.52ZM204.06,84.77a5.51,5.51,0,0,0,0-3.71,8,8,0,0,0-1.79,1.51A23.59,23.59,0,0,0,198,88.4c.86,2.71,1.77,7.09,2.7,9.8C201.77,94.8,204,85.4,204.06,84.77Z"/><path class="cls-5" d="M237.78,61.73c-2.4-6.19-4.19-16.64-4.6-18.05.08-.17-3.15,4.72-4.62,7.41-1-.44-.7-.46-2.06-1.08,3.63-8.1,9.56-17.44,11-18,.74-.38,3.26-1.15,4.47,1.24-1.53,1.45-5.1,5.23-5.86,6.76-.15,4,3.24,19.09,5,23a23.37,23.37,0,0,0,2.36,4.32c-1.63,1.83-3.58-.94-3.82-1.5A34.94,34.94,0,0,1,237.78,61.73Z"/><path class="cls-6" d="M206.48,94.28a40.88,40.88,0,0,0-1.1,4.7c2.17-1,10.91-1.95,12.07-.37a1,1,0,0,1-.87,1.08c-3.69-.91-8.81,1-12.1,3,.6,1.91,3.67,4.85,5.08,6.68a1.77,1.77,0,0,1-1.47.9c-3.71-1.72-6-5.86-7.55-9.09a41.37,41.37,0,0,1-3-7.58c-.44-1.43-.82-2.84-.92-3.24A45.81,45.81,0,0,0,193.29,94c2.57,8.35,5.47,16.44,11.22,24.45-1.72,1.7-3.63-.44-4.57-1.68a39.89,39.89,0,0,1-3.66-6,76.93,76.93,0,0,1-5.42-13.39c-2.15,3-3.51,6.09-4.92,8.36-.25.23-.62.18-.93.2,2.18,1.46,4.63,8,4.3,12.61a12.57,12.57,0,0,1-.16,2,2.26,2.26,0,0,1-3.92-.06c.12-5.14-.15-9-3.54-13.2-.72,0-1.41,1.1-1.73,1.58-2.82,4.31-3.74,10.52-3.86,15.07-.06,2.52-.2,4.52,1.41,6.4,2.18-.35,3.91-1.78,6-3.57a78.49,78.49,0,0,1,7.82-6.29,6.84,6.84,0,0,1,2.82-1.33c1.22-.2,3.81-.5,4,1.47S196,127.3,194,130c-3.6,4.9-8.73,8.8-12.27,5.58-.18-.33.87-2.63,1.77-2.74.49.64.11,1.7.55,2.08a5.07,5.07,0,0,0,2.72-.78A16.61,16.61,0,0,0,192,128.9a17.19,17.19,0,0,0,1-1.86,20,20,0,0,0,2-6.18c-4.35,1.7-9.91,9-14.67,11.31-1.44.69-4.31.27-6.06-1.47s-1.68-3.55-1.53-6c.15-1.55.33-3.63.59-5.28.63-3.57,1.64-8.17,3.79-11.58a12.06,12.06,0,0,1,1-1.41c1.94-.69,3.34-1.27,5.59-.9a4.37,4.37,0,0,1,.23-1A42.34,42.34,0,0,1,194,88a2.46,2.46,0,0,1,2.36,0c.39-.86,2.06-3.82,2.46-4.41,2.11-3.15,4.82-5,7.37-5.06,1.11,0,2.87.46,3.3,1.66-.09-1-.46-1.82-.66-2.92-.13-.47-.17-.59-.35-1.21-.3.37-.75,1.33-1.15,1.74a2.55,2.55,0,0,1-2.19-.7c1.35-1.24,3.76-5.66,4.11-6.22A54.08,54.08,0,0,1,215,62.75c.72-.77,1.65.06,2.2.27.27-.52,2.17-4.34,2.73-5.26,1.25-2.09,4.49-7.57,6.56-9.23.79-.2,2.26.64,3.17.3.35.51.64.35.77.92-3.18,3.65-6,6.37-8.76,10.5a89.21,89.21,0,0,0,3.62,12c.19-.72,3.25-5.37,7-10.42.24-.33.42.2.83.23,1,.08,2.08-.86,3,.82-2.49,2.77-5.29,6.53-7.85,9.62-.46.56-1.56,1.82-1.9,2.28a32.09,32.09,0,0,0,2.73,5.16c2.16-2.91,6.51-7.71,8.37-10.55a2.44,2.44,0,0,1,2.48-.89,2.27,2.27,0,0,1,1.06.59c.23.27.1.38,0,.55C237.7,73.46,230.39,81.81,228.69,84c-1.53-1.13-1.76-1-1.42-1.57.13-.19.33-.31.18-.58-.7-1.22-2.12-3.94-2.85-5.27,0,0,.13.33,0,.47-2.43,2.47-5.87,8-8.59,11.74A28.94,28.94,0,0,0,218.58,93c1.3-1.94,5-7.2,5.8-8.44.29-.45,2.49-.75,3.18-.65a1.45,1.45,0,0,1,.84,1A90.85,90.85,0,0,0,218,97.38c-1.2-.52-1.14-.42-1.92-.83.22-.36.72-1.11.91-1.41a25.09,25.09,0,0,1-3-3.72c-.68.94-1.45,0-1.91-.41.36-.75.77-1.43.77-1.43s-1.88-4.59-3-8.27C209.18,85.63,206.56,93.91,206.48,94.28Zm17-19.83A47.88,47.88,0,0,1,219.73,63a14.21,14.21,0,0,0-1.3,2.36c-.23-.27-.36-.39-.51-.57a40.16,40.16,0,0,0-7.47,8.57,67.46,67.46,0,0,0,4.31,13.26,94.9,94.9,0,0,1,5.71-9.54c.66-.88,1.22-1.91,3-1C222.52,74.87,223.66,74.83,223.45,74.45ZM205.77,84.7a5.51,5.51,0,0,0,0-3.71,8,8,0,0,0-1.79,1.51,23.59,23.59,0,0,0-4.21,5.83c.86,2.71,1.77,7.09,2.7,9.8C203.48,94.73,205.68,85.33,205.77,84.7Z"/><path class="cls-6" d="M239.49,61.66c-2.4-6.19-4.19-16.64-4.6-18.05.08-.17-3.15,4.72-4.62,7.41-1-.44-.7-.46-2.06-1.08,3.63-8.1,9.56-17.44,11-18,.74-.38,3.26-1.15,4.47,1.24-1.53,1.45-5.1,5.23-5.86,6.76-.15,4,3.24,19.09,5,23a23.37,23.37,0,0,0,2.36,4.32c-1.63,1.83-3.58-.94-3.82-1.5A34.94,34.94,0,0,1,239.49,61.66Z"/></g></g></svg>